<svg width="270" height="270" viewBox="0 0 270 270" fill="none" xmlns="http://www.w3.org/2000/svg">
<path fill-rule="evenodd" clip-rule="evenodd" d="M21.2099 53.5371C21.484 46.5556 21.621 43.0649 25.6779 36.5973C27.022 34.4547 30.6088 30.5332 32.6234 29.0039C38.7044 24.3877 44.503 23.6395 56.1001 22.1431C112.589 14.8544 154.3 15.235 216.962 22.6266C224.424 23.5068 228.154 23.9469 232.294 25.8618C238.127 28.5601 245.235 36.4166 247.336 42.4904C248.828 46.8007 248.869 49.1594 248.951 53.8766C249.036 58.7924 249.079 61.2503 247.474 65.9729C246.18 69.7834 243.011 74.133 239.305 77.6348C246.398 85.4539 246.941 96.9961 247.994 119.334C249.308 147.232 249.277 171.709 247.945 199.63C246.845 222.683 246.295 234.21 238.491 242.034C230.688 249.858 219.084 250.442 195.877 251.609C153.078 253.762 117.766 253.574 74.6898 251.349C52.3165 250.193 41.1298 249.616 33.4087 242.128C25.6875 234.64 24.7948 223.818 23.0094 202.173C20.5365 172.193 20.5617 146.323 23.0479 116.343C24.6735 96.7394 25.5618 86.0274 31.4773 78.6204C29.2189 76.5725 26.4978 73.5364 25.3526 71.674C20.7892 64.2528 20.9294 60.6809 21.2099 53.5371ZM72.0722 70.0554C66.5484 77.0722 63.7864 85.246 63.7864 94.5768C63.7864 103.012 65.9512 110.85 70.2807 118.09C74.6102 125.331 81.515 132.87 90.995 140.708L90.6591 147.874C75.7299 150.114 64.4956 154.48 56.9563 160.975C49.417 167.394 45.6474 175.792 45.6474 186.168C45.6474 193.334 47.6255 199.679 51.5818 205.203C55.538 210.652 61.0245 214.907 68.0413 217.967C75.1327 220.953 83.1945 222.446 92.2267 222.446C104.842 222.446 114.733 220.468 121.899 216.512C129.139 212.481 134.924 206.173 139.254 197.589L147.54 196.581L169.934 218.975H233.98L183.594 172.06L184.49 166.013C197.329 166.237 206.622 163.737 212.37 158.511C218.192 153.211 221.104 146.419 221.104 138.133C221.104 135.072 220.544 132.311 219.424 129.847H166.91C168.254 133.654 168.926 137.237 168.926 140.596C168.926 144.105 168.627 147.016 168.03 149.33C167.508 151.569 166.686 153.547 165.567 155.264L141.045 132.422C134.029 125.854 129.065 120.74 126.153 117.083C123.317 113.425 121.899 109.954 121.899 106.669C121.899 103.684 123.093 101.295 125.482 99.5034C127.945 97.7119 131.603 96.8162 136.455 96.8162C142.202 96.8162 146.644 97.8985 149.779 100.063C152.989 102.228 154.594 105.289 154.594 109.245C154.594 110.514 154.519 111.484 154.37 112.156L212.146 98.1598C212.146 87.8586 209.272 78.9384 203.524 71.3991C197.777 63.7851 189.23 57.9254 177.883 53.8199C166.612 49.6397 152.84 47.5496 136.567 47.5496C120.891 47.5496 107.604 49.5277 96.7055 53.4839C85.8071 57.4402 77.596 62.964 72.0722 70.0554ZM101.408 184.264C97.6759 181.129 95.8097 176.688 95.8097 170.94C95.8097 167.282 96.5189 164.073 97.9372 161.311C99.3554 158.549 101.707 156.085 104.991 153.921L134.551 183.481C129.699 187.064 124.175 188.855 117.98 188.855C110.739 188.855 105.215 187.325 101.408 184.264Z" fill="#77339C"/>
</svg>
