<svg width="64" height="64" viewBox="0 0 64 64" fill="none" xmlns="http://www.w3.org/2000/svg">
<path fill-rule="evenodd" clip-rule="evenodd" d="M5.02753 12.6903C5.0925 11.0354 5.12498 10.208 6.08662 8.67493C6.40521 8.16704 7.25543 7.2375 7.73296 6.87499C9.17438 5.78078 10.5489 5.60344 13.2978 5.24874C26.6879 3.52105 36.5749 3.61127 51.428 5.36334C53.1967 5.57198 54.0811 5.6763 55.0623 6.13019C56.445 6.7698 58.1297 8.63209 58.6279 10.0718C58.9815 11.0935 58.9912 11.6526 59.0105 12.7708C59.0307 13.936 59.0408 14.5186 58.6605 15.638C58.3537 16.5413 57.6027 17.5723 56.7241 18.4023C58.4053 20.2557 58.5342 22.9917 58.7837 28.2866C59.0952 34.8994 59.0879 40.7015 58.7721 47.3197C58.5114 52.7842 58.381 55.5165 56.5313 57.371C54.6815 59.2256 51.931 59.364 46.43 59.6407C36.2852 60.151 27.9148 60.1064 17.7042 59.579C12.4009 59.3051 9.74928 59.1681 7.91909 57.3933C6.0889 55.6184 5.87729 53.0531 5.45409 47.9224C4.86792 40.8161 4.87389 34.6841 5.4632 27.5776C5.84854 22.9308 6.0591 20.3917 7.46129 18.6359C6.92597 18.1505 6.28097 17.4308 6.00951 16.9894C4.92781 15.2303 4.96105 14.3836 5.02753 12.6903ZM17.0838 16.6057C15.7744 18.269 15.1197 20.2065 15.1197 22.4182C15.1197 24.4176 15.6329 26.2755 16.6591 27.9918C17.6854 29.7081 19.3221 31.4952 21.5692 33.3531L21.4896 35.0517C17.9508 35.5825 15.2878 36.6176 13.5008 38.157C11.7137 39.6786 10.8201 41.6692 10.8201 44.1287C10.8201 45.8273 11.289 47.3313 12.2268 48.6406C13.1646 49.9323 14.4651 50.9408 16.1283 51.6663C17.8092 52.3741 19.7202 52.7279 21.8611 52.7279C24.8514 52.7279 27.1959 52.259 28.8945 51.3213C30.6108 50.3658 31.9821 48.8707 33.0083 46.8359L34.9724 46.597L40.2806 51.9052H55.462L43.5185 40.7845L43.7309 39.3513C46.7742 39.4044 48.9771 38.8116 50.3396 37.5731C51.7197 36.3168 52.4098 34.7066 52.4098 32.7426C52.4098 32.0172 52.2771 31.3625 52.0116 30.7786H39.5639C39.8824 31.681 40.0417 32.5303 40.0417 33.3265C40.0417 34.1581 39.9709 34.8482 39.8294 35.3967C39.7055 35.9275 39.5109 36.3964 39.2455 36.8034L33.433 31.389C31.7698 29.832 30.5931 28.6199 29.903 27.7529C29.2307 26.8859 28.8945 26.0632 28.8945 25.2846C28.8945 24.5769 29.1776 24.0107 29.7438 23.586C30.3277 23.1613 31.1947 22.949 32.3448 22.949C33.7072 22.949 34.76 23.2056 35.5032 23.7187C36.264 24.2318 36.6444 24.9573 36.6444 25.8951C36.6444 26.1959 36.6268 26.4259 36.5914 26.5851L50.2865 23.2675C50.2865 20.8257 49.6053 18.7113 48.2428 16.9242C46.8804 15.1194 44.8544 13.7305 42.165 12.7573C39.4932 11.7664 36.2286 11.271 32.3714 11.271C28.6556 11.271 25.5061 11.7399 22.9228 12.6777C20.3395 13.6155 18.3931 14.9248 17.0838 16.6057ZM24.0375 43.6775C23.1528 42.9343 22.7105 41.8815 22.7105 40.5191C22.7105 39.6521 22.8785 38.8913 23.2147 38.2366C23.5509 37.5819 24.1083 36.998 24.8868 36.4849L31.8936 43.4917C30.7435 44.341 29.4342 44.7657 27.9656 44.7657C26.2492 44.7657 24.9399 44.4029 24.0375 43.6775Z" fill="#77339C"/>
</svg>
