<?xml version="1.0" standalone="no"?>
<!DOCTYPE svg PUBLIC "-//W3C//DTD SVG 20010904//EN"
 "http://www.w3.org/TR/2001/REC-SVG-20010904/DTD/svg10.dtd">
<svg version="1.0" xmlns="http://www.w3.org/2000/svg"
 width="700.000000pt" height="700.000000pt" viewBox="0 0 700.000000 700.000000"
 preserveAspectRatio="xMidYMid meet">
<metadata>
Created by potrace 1.14, written by Peter Selinger 2001-2017
</metadata>
<g transform="translate(0.000000,700.000000) scale(0.100000,-0.100000)"
fill="#000000" stroke="none">
<path d="M3267 6563 c-1 -1 -108 -4 -237 -8 -129 -4 -260 -8 -290 -10 -128 -7
-259 -15 -315 -20 -33 -3 -91 -7 -130 -10 -38 -2 -88 -6 -110 -9 -22 -3 -74
-8 -115 -11 -157 -14 -686 -75 -769 -90 -13 -2 -45 -7 -70 -11 -204 -30 -319
-82 -442 -204 -153 -150 -220 -284 -234 -465 -6 -80 -6 -304 0 -335 3 -14 7
-36 10 -49 7 -36 69 -164 104 -213 30 -44 47 -64 109 -130 l35 -37 -32 -49
c-51 -79 -97 -207 -116 -322 -3 -19 -7 -42 -10 -50 -2 -8 -6 -42 -10 -75 -3
-33 -8 -71 -10 -85 -3 -25 -12 -98 -19 -175 -3 -22 -7 -78 -11 -125 -3 -47 -8
-101 -10 -120 -3 -31 -12 -160 -20 -285 -21 -324 -28 -1122 -11 -1415 4 -80 9
-170 11 -200 3 -55 12 -186 21 -290 2 -30 6 -82 9 -115 3 -33 7 -82 10 -110 3
-27 7 -77 10 -110 32 -365 100 -569 237 -704 169 -167 382 -217 1043 -246 33
-1 132 -6 220 -10 88 -3 185 -8 215 -10 50 -4 269 -10 654 -21 532 -14 1430 0
2051 32 61 3 144 7 185 9 375 20 513 36 666 81 128 37 198 77 284 164 103 103
166 238 194 415 23 146 35 290 51 620 22 456 28 714 27 1145 0 421 -9 761 -27
1095 -3 55 -8 141 -10 190 -3 50 -7 114 -10 143 -3 28 -7 78 -11 110 -20 215
-82 408 -158 499 -14 17 -26 34 -26 38 0 4 16 23 35 44 55 58 114 141 145 201
50 101 64 177 62 360 -2 239 -26 323 -138 481 -128 179 -301 291 -485 314 -30
4 -56 8 -59 10 -3 2 -34 6 -70 9 -36 4 -76 8 -90 11 -14 2 -53 7 -87 11 -35 3
-75 8 -90 10 -24 3 -85 9 -183 19 -86 9 -160 17 -190 20 -19 3 -69 7 -110 10
-41 3 -93 7 -115 10 -100 11 -333 28 -550 40 -66 3 -138 8 -160 10 -72 8 -852
24 -858 18z m603 -807 c47 -4 96 -9 110 -11 14 -2 50 -6 80 -10 30 -3 102 -15
160 -26 431 -83 752 -235 970 -461 184 -190 287 -428 306 -703 l6 -90 -99 -24
c-140 -33 -503 -121 -748 -181 -115 -28 -217 -53 -225 -55 -24 -5 -362 -86
-395 -94 l-31 -8 2 60 c6 211 -166 335 -465 335 -176 0 -299 -49 -352 -141
-20 -35 -24 -55 -23 -117 1 -142 68 -245 329 -505 83 -82 200 -195 260 -250
60 -55 125 -115 144 -134 20 -18 87 -81 150 -140 63 -58 142 -132 175 -163 34
-32 64 -58 68 -58 11 0 46 82 64 150 27 100 25 322 -3 420 -12 41 -20 77 -18
80 6 9 1345 4 1355 -6 23 -23 39 -122 36 -239 -2 -102 -7 -133 -31 -205 -68
-198 -221 -352 -421 -420 -110 -38 -263 -61 -423 -64 l-66 -1 -13 -77 -14 -76
68 -64 c37 -34 100 -93 139 -129 38 -37 84 -79 100 -94 17 -15 80 -73 140
-130 61 -56 124 -115 141 -131 26 -24 185 -172 297 -277 17 -16 80 -74 140
-130 61 -56 148 -138 195 -183 l86 -81 -831 1 -830 1 -289 288 -288 289 -51
-6 c-27 -3 -75 -8 -105 -11 -30 -4 -58 -12 -63 -18 -4 -7 -33 -54 -65 -106
-89 -147 -241 -295 -384 -375 -131 -73 -332 -126 -538 -143 -163 -13 -425 -7
-521 13 -13 2 -40 7 -59 10 -101 17 -248 67 -360 124 -137 70 -276 192 -357
313 -48 73 -108 209 -117 268 -3 20 -8 43 -11 51 -4 9 -7 64 -9 123 -9 386
173 665 556 849 53 25 103 46 112 46 8 0 17 4 20 9 3 5 16 11 28 14 13 2 63
16 112 31 49 14 102 29 118 31 15 3 60 12 99 20 39 8 81 15 95 15 21 0 24 4
25 43 1 23 3 65 5 94 l4 51 -77 69 c-445 392 -626 720 -626 1128 1 301 97 533
307 740 274 270 699 428 1266 471 47 3 86 7 87 8 6 5 480 -2 553 -8z"/>
<path d="M2699 2993 c-48 -32 -121 -109 -149 -158 -44 -78 -63 -157 -63 -265
1 -192 68 -311 225 -399 118 -65 405 -87 548 -41 71 23 172 71 208 99 20 16
10 26 -362 398 -382 382 -383 382 -407 366z"/>
</g>
</svg>
