<svg width="917" height="80" viewBox="0 0 917 80" fill="none" xmlns="http://www.w3.org/2000/svg">
<g clip-path="url(#clip0_445_7856)">
<path d="M921 48.0233H922.5V46.5233V-5V-6.5H921H-5H-6.5V-5V46.5233V48.2649L-4.7776 48.0067C0.99024 47.1419 4.2505 47.6389 6.11026 48.5968C7.85056 49.4932 8.58063 50.911 8.949 52.6751C9.1384 53.5822 9.22179 54.5394 9.29586 55.5435C9.30326 55.6437 9.31059 55.745 9.31797 55.8472C9.38152 56.726 9.44942 57.6649 9.60322 58.5081C9.77448 59.4471 10.0845 60.4788 10.7872 61.3068C11.5406 62.1945 12.5951 62.6771 13.8919 62.7709C15.921 62.9175 17.5546 62.763 18.8407 62.1603C20.2096 61.5188 20.9924 60.4641 21.4815 59.2581C21.9174 58.183 22.1541 56.892 22.3875 55.6192C22.3981 55.5609 22.4088 55.5026 22.4195 55.4444C22.6738 54.0605 22.9557 52.5592 23.4758 50.912C24.4845 47.717 26.1426 45.5623 28.6557 44.2589C31.232 42.9227 34.8993 42.3798 40.1045 42.8562C44.6104 43.2685 46.6905 46.1063 49.3006 49.667C49.3406 49.7216 49.3807 49.7763 49.421 49.8312C52.0446 53.4089 55.1632 57.5017 61.8716 58.1321C68.9564 58.7978 74.7829 56.5818 80.3766 54.4545C80.6593 54.3469 80.9414 54.2397 81.2231 54.133C87.1246 51.8976 92.9302 49.8724 100.345 50.8276C103.213 51.1969 106.378 52.6178 109.882 54.1901C110.252 54.3561 110.625 54.5238 111.003 54.6921C114.804 56.3874 118.987 58.1386 123.02 58.1386C126.959 58.1386 129.212 57.8297 131.293 57.0311C132.31 56.641 133.247 56.1487 134.268 55.584C134.533 55.4372 134.805 55.2855 135.086 55.1279C135.905 54.67 136.812 54.1623 137.923 53.583C138.927 53.0591 140.046 52.3564 141.202 51.6304C141.35 51.5376 141.498 51.4444 141.647 51.3512C142.986 50.5121 144.412 49.6352 145.934 48.85C148.986 47.2754 152.295 46.1401 155.79 46.4314C159.228 46.7179 161.048 48.2336 161.891 50.1721C162.785 52.227 162.711 55.0611 161.648 58.0954C160.467 61.4635 159.963 64.8732 160.632 67.5936C160.973 68.9807 161.634 70.2439 162.72 71.1859C163.814 72.1338 165.222 72.6559 166.874 72.753C168.288 72.8362 169.699 72.8436 170.969 72.5949C172.263 72.3416 173.504 71.8043 174.454 70.7327C175.399 69.6687 175.911 68.2426 176.079 66.4918C176.246 64.7505 176.081 62.5919 175.585 59.9331C175.014 56.8694 175.253 54.5487 175.944 52.7807C176.631 51.0216 177.811 49.6939 179.321 48.6816C182.41 46.6117 186.809 45.9123 190.73 45.786C193.499 45.6968 196.731 47.1647 199.608 49.4109C202.475 51.6495 204.69 54.4278 205.536 56.5412C206.578 59.1484 208.037 61.5636 210.987 63.2803C213.866 64.9565 217.989 65.8617 224.132 65.9321C230.492 66.0049 234.79 64.2817 238.162 62.2104C239.58 61.3402 240.837 60.4053 241.968 59.5641C242.156 59.4243 242.34 59.287 242.522 59.153C243.823 58.191 244.945 57.4066 246.099 56.8717C249.401 55.3402 251.744 55.1397 253.717 55.5778C255.757 56.031 257.599 57.2029 259.88 58.8557C260.33 59.1815 260.844 59.6336 261.43 60.1492C264.339 62.7062 269.023 66.8254 276.427 64.8544C280.321 63.8177 283.572 61.2624 286.594 58.887C286.962 58.5982 287.326 58.312 287.688 58.0316C291.132 55.3594 294.468 53.0681 298.721 52.6013C303.198 52.1098 305.235 52.914 306.55 54.0507C307.26 54.6643 307.849 55.4498 308.493 56.4424C308.686 56.7397 308.891 57.0668 309.107 57.412C309.572 58.1555 310.089 58.9832 310.659 59.7803C312.378 62.1868 314.839 64.9205 319.053 66.8518C323.246 68.7738 329.042 69.8408 337.343 69.1767C342.803 68.7399 346.688 66.9221 349.731 64.3984C352.673 61.9591 354.779 58.8914 356.731 56.0484L356.831 55.9031C358.852 52.9593 360.719 50.2756 363.259 48.2607C365.74 46.2933 368.927 44.9214 373.65 44.8116C380.35 44.6558 386.108 46.5296 390.015 49.3954C393.932 52.2686 395.858 56.01 395.396 59.6964C395.294 60.5082 395.174 61.3186 395.054 62.1305L395.04 62.2214C394.925 62.9975 394.809 63.7774 394.713 64.5342C394.516 66.0899 394.385 67.6603 394.533 69.071C394.682 70.4922 395.13 71.9137 396.236 72.9941C397.347 74.0799 398.907 74.6115 400.838 74.7035C404.466 74.8763 407.168 74.0314 408.596 71.5591C409.259 70.4121 409.555 69.0516 409.649 67.5894C409.743 66.1228 409.638 64.4564 409.421 62.6307C409.11 60.0086 411.017 57.3591 415 55.1518C418.888 52.9972 424.262 51.5811 429.579 51.3085C436.454 50.9562 441.649 53.1906 446.175 55.6142C446.958 56.034 447.744 56.4723 448.522 56.9064C449.936 57.6952 451.324 58.4699 452.631 59.0935C454.698 60.0804 456.829 60.8326 459.065 60.8326C463.325 60.8326 466.654 59.6397 469.601 58.5836C469.835 58.4996 470.068 58.4164 470.298 58.3347C473.437 57.2204 476.194 56.3797 479.694 56.9594C483.507 57.5908 487.098 58.9913 490.929 60.485C491.742 60.802 492.566 61.1232 493.405 61.4422C498.128 63.2378 503.216 64.9049 509.072 64.9049C529.526 64.9049 544.419 59.0098 555.873 53.7741C561.56 51.1742 565.982 49.5729 569.275 49.2736C570.896 49.1262 572.131 49.3069 573.073 49.7477C573.988 50.1754 574.752 50.9058 575.352 52.106C575.762 52.9259 576.127 53.5256 576.385 53.9491C576.464 54.0796 576.534 54.1934 576.591 54.2918C576.815 54.6775 576.898 54.8797 576.942 55.2497C576.998 55.7179 576.985 56.4556 576.857 57.9062C576.743 59.1847 576.55 60.9199 576.277 63.3773L576.178 64.2665C575.803 67.6376 576.911 70.2886 578.817 72.0559C580.678 73.7822 583.198 74.5728 585.553 74.5014C587.898 74.4304 590.299 73.4887 591.732 71.4687C593.203 69.3953 593.406 66.5475 592.056 63.2188C590.909 60.3885 590.619 58.044 590.965 56.1349C591.306 54.2564 592.284 52.6672 593.935 51.3476C597.323 48.6385 603.526 47.0924 612.385 47.0865C618.809 47.5326 623.308 48.9476 626.688 50.7815C630.077 52.6205 632.429 54.9276 634.518 57.2967C635.061 57.9133 635.592 58.5431 636.122 59.1733C639.606 63.3104 643.104 67.4654 650.482 68.0021C654.626 68.3036 657.79 67.5296 660.472 66.1594C662.998 64.8687 665.05 63.0656 666.996 61.3563L667.232 61.1493C669.285 59.3469 671.278 57.6341 673.816 56.3465C676.324 55.074 679.422 54.1917 683.664 54.1917C688.832 54.1917 692.458 55.1415 695.183 56.5008C697.911 57.8616 699.836 59.6812 701.554 61.5894C702.02 62.1063 702.477 62.643 702.937 63.1839C705.764 66.504 708.723 69.9796 714.599 69.9796C721.019 69.9796 724.096 66.4188 726.866 63.2135C727.016 63.0404 727.165 62.8684 727.313 62.698C728.78 61.0118 730.198 59.4798 732.066 58.3428C733.899 57.2268 736.245 56.4471 739.603 56.4471C741.579 56.4471 744.15 57.1181 747.317 57.9444C747.731 58.0523 748.155 58.1629 748.588 58.275C752.221 59.2133 756.396 60.1983 760.606 60.1983C762.749 60.1983 764.383 59.908 765.776 59.4358C767.133 58.9757 768.209 58.3576 769.189 57.7946L769.23 57.7709L769.257 57.7552C771.155 56.6649 773.05 55.5766 777.202 55.3164C778.907 55.2096 780.86 56.0993 783.464 57.8134C784.444 58.4588 785.461 59.1802 786.553 59.9561C786.88 60.1883 787.214 60.4253 787.556 60.6667C789.025 61.704 790.614 62.8001 792.33 63.8438C799.26 68.0577 808.271 71.4005 820.786 67.37C823.311 66.5569 826.495 64.9735 829.859 63.2961L830.037 63.2077C833.403 61.5295 837.018 59.7269 840.619 58.3079C844.294 56.8596 847.836 55.8602 850.968 55.771C854.058 55.6829 856.651 56.4786 858.645 58.5299C864.086 64.1275 874.732 64.7564 881.605 58.9088C882.958 57.7577 884.188 57.3548 885.239 57.3296C886.306 57.304 887.336 57.6655 888.269 58.2925C889.207 58.923 890 59.7927 890.553 60.6788C891.126 61.5964 891.347 62.3769 891.347 62.8075C891.347 63.0248 891.306 63.3843 891.216 63.9349C891.167 64.2349 891.115 64.5279 891.058 64.8467C891.007 65.1318 890.953 65.4374 890.894 65.7869C890.662 67.1609 890.424 68.8408 890.491 70.4775C890.557 72.1031 890.931 73.8784 892.101 75.2821C893.312 76.7355 895.168 77.5461 897.672 77.6287C900.042 77.7069 901.965 77.3257 903.452 76.4997C904.971 75.6564 905.928 74.4075 906.43 72.9792C907.393 70.2398 906.651 66.9713 905.6 64.496C905.227 63.6165 905.004 62.138 905.187 60.3463C905.367 58.5802 905.932 56.6202 907.01 54.7996C909.12 51.2359 913.306 48.0233 921 48.0233Z" fill="url(#paint0_linear_445_7856)" stroke="black" stroke-width="3" stroke-linecap="round"/>
<path d="M13 52.5C13 54 13 57.5 14 58.5" stroke="#F0E4F6" stroke-width="2" stroke-linecap="round"/>
<path d="M164.558 62C164.058 64.5 164.558 66.5 165.558 68" stroke="#F0E4F6" stroke-width="2" stroke-linecap="round"/>
<path d="M399.301 64.501C398.966 66.0105 398.698 68.4427 399.451 70.0807" stroke="#F0E4F6" stroke-width="2" stroke-linecap="round"/>
<path d="M580.892 63.093C580.513 65.2432 581.055 68.0113 583.5 69.5" stroke="#F0E4F6" stroke-width="2" stroke-linecap="round"/>
<path d="M205.5 49C210 53.5 210 59.5 215.5 61" stroke="#F0E4F6" stroke-width="2" stroke-linecap="round"/>
<path d="M52 45.5C54.5 50 57.5 53 61.5 54" stroke="#F0E4F6" stroke-width="2" stroke-linecap="round"/>
<path d="M110.5 49.5C113 51.5 118.5 54 123 54.5" stroke="#F0E4F6" stroke-width="2" stroke-linecap="round"/>
<path d="M263 56C264.333 57.8137 267.63 60.5098 270.624 61.6629" stroke="#F0E4F6" stroke-width="2" stroke-linecap="round"/>
<path d="M311.972 53.8804C313.252 56.8279 318 62.5 322.5 64" stroke="#F0E4F6" stroke-width="2" stroke-linecap="round"/>
<path d="M451 53C451.963 53.8137 455.376 55.6856 456.558 56.2367" stroke="#F0E4F6" stroke-width="2" stroke-linecap="round"/>
<path d="M497 57.4875C499 59 502.5 60 504.77 60.6142" stroke="#F0E4F6" stroke-width="2" stroke-linecap="round"/>
<path d="M639.598 55.9983C642.142 58.9157 645.109 62.2499 648.5 63.5001" stroke="#F0E4F6" stroke-width="2" stroke-linecap="round"/>
<path d="M704.618 58.0234C706.87 60.9417 709.498 64.2769 712.5 65.5283" stroke="#F0E4F6" stroke-width="2" stroke-linecap="round"/>
<path d="M756.939 56.1516L757.941 56.3819" stroke="#F0E4F6" stroke-width="2" stroke-linecap="round"/>
<path d="M793 58C796.737 60.708 801.078 63.7866 805.359 64.3331" stroke="#F0E4F6" stroke-width="2" stroke-linecap="round"/>
<path d="M862.198 56.2056C862.421 56.6882 865.624 58.9225 867.119 58.7942" stroke="#F0E4F6" stroke-width="2" stroke-linecap="round"/>
<path d="M894.422 68.7798C894.309 69.2997 894.422 73 896.785 73.8128" stroke="#F0E4F6" stroke-width="2" stroke-linecap="round"/>
</g>
<defs>
<linearGradient id="paint0_linear_445_7856" x1="458" y1="-5" x2="458" y2="76.1387" gradientUnits="userSpaceOnUse">
<stop stop-color="#843BAA" stop-opacity="0"/>
<stop offset="0.57" stop-color="#843BAA"/>
</linearGradient>
<clipPath id="clip0_445_7856">
<rect width="917" height="80" fill="white"/>
</clipPath>
</defs>
</svg>
