<svg fill="#e8d196" height="86" viewBox="0 0 176 86" width="176" xmlns="http://www.w3.org/2000/svg"><g fill="#e8d196"><path clip-rule="evenodd" d="m175.148 29.023c0 6.4894-1.819 11.3564-5.456 14.601-3.617 3.2447-9.176 4.867-16.678 4.867-4.898 0-8.959-.7956-12.183-2.387-3.203-1.612-5.559-3.7613-7.068-6.448-1.509-2.6866-2.263-5.7143-2.263-9.083 0-1.0746.062-2.0253.186-2.852l16.709-3.41c-.351.806-.61 1.55-.775 2.232s-.248 1.5087-.248 2.48c0 1.86.506 3.2654 1.519 4.216 1.033.9507 2.387 1.426 4.061 1.426 2.005 0 3.513-.4856 4.526-1.457 1.033-.9713 1.55-2.7383 1.55-5.301v-13.051h-17.112l-2.294-13.856977h35.526zm-131.7105-27.03179h23.901c6.6753 0 11.8937 1.054 15.655 3.162 3.782 2.108 5.673 5.24929 5.673 9.42399 0 1.7567-.3617 3.2653-1.085 4.526-.7027 1.24-1.8703 2.2733-3.503 3.1-1.612.806-3.7923 1.395-6.541 1.767v1.643c4.4227.434 7.719 1.5087 9.889 3.224s3.255 3.9887 3.255 6.82c0 8.556-7.1197 12.834-21.359 12.834h-25.885v-16.743c-.8243 1.1675-1.8185 2.1915-2.9825 3.072-3.968 2.9967-10.013 4.495-18.135 4.495h-6.2v9.176h-16.12v-46.49999h24.676c4.278 0 8.0497.67167 11.315 2.015 3.1426 1.29283 5.6247 3.26518 7.4465 5.91707zm25.451 34.44099c1.6327 0 2.8727-.279 3.72-.837.8473-.5787 1.271-1.6637 1.271-3.255 0-1.364-.589-2.325-1.767-2.883-1.1573-.5787-2.8727-.868-5.146-.868h-7.409v7.843zm-3.441-14.787c2.108 0 3.7097-.248 4.805-.744 1.0953-.5167 1.643-1.4053 1.643-2.666 0-1.674-.465-2.79-1.395-3.348-.9093-.558-2.108-.837-3.596-.837h-7.347v7.595zm-37.3615 3.286c-1.1573.806-2.914 1.209-5.27 1.209h-6.696v-10.974h8.122c1.24 0 2.263.155 3.069.465.8267.31 1.457.868 1.891 1.674s.651 1.9427.651 3.41c0 1.984-.589 3.3893-1.767 4.216z" fill-rule="evenodd"/><path clip-rule="evenodd" d="m85.706 7.68006c.0574-1.46249.0861-2.19374.9359-3.54858.2816-.44884 1.033-1.27033 1.455-1.59069 1.2739-.96702 2.4886-1.12375 4.918-1.43721 11.8331-1.526852 20.5711-1.447125 33.6971.10128 1.564.18438 2.345.27658 3.212.67771 1.222.56525 2.711 2.21105 3.151 3.48341.313.90293.322 1.39702.339 2.38521.017 1.02976.026 1.54464-.31 2.53391-.271.7983-.935 1.7094-1.711 2.443 1.486 1.638 1.6 4.0559 1.82 8.7353.275 5.8441.269 10.9717-.01 16.8205-.23 4.8293-.346 7.244-1.98 8.8829-1.635 1.639-4.066 1.7613-8.927 2.0058-8.966.451-16.363.4116-25.3869-.0545-4.6869-.242-7.0303-.3631-8.6477-1.9316-1.6174-1.5686-1.8044-3.8357-2.1785-8.3699-.518-6.2802-.5127-11.6995.0081-17.9798.3405-4.1066.5266-6.3506 1.7658-7.9022-.4731-.429-1.0431-1.0651-1.283-1.4552-.956-1.5546-.9266-2.30285-.8678-3.79934zm10.6547 3.46034c-1.1571 1.4698-1.7357 3.1821-1.7357 5.1367 0 1.767.4535 3.4089 1.3604 4.9257.907 1.5168 2.3534 3.0962 4.3396 4.7381l-.071 1.5011c-3.1271.4691-5.4804 1.3839-7.0598 2.7443-1.5793 1.3448-2.369 3.104-2.369 5.2776 0 1.5011.4144 2.8303 1.2431 3.9874.8288 1.1415 1.9781 2.0328 3.448 2.674 1.4855.6254 3.1744.9382 5.0667.9382 2.642 0 4.714-.4144 6.215-1.2432 1.517-.8444 2.729-2.1657 3.636-3.964l1.736-.2111 4.691 4.6912h13.417l-10.555-9.828.187-1.2666c2.69.0469 4.637-.4769 5.841-1.5715 1.219-1.1102 1.829-2.5332 1.829-4.2689 0-.6411-.117-1.2197-.352-1.7357h-11c.281.7975.422 1.548.422 2.2517 0 .735-.063 1.3448-.188 1.8296-.109.4691-.281.8834-.516 1.2431l-5.137-4.785c-1.469-1.376-2.509-2.4472-3.119-3.2134-.594-.7662-.892-1.4933-.892-2.1813 0-.6255.251-1.1259.751-1.5012.516-.3753 1.282-.5629 2.299-.5629 1.204 0 2.134.2267 2.791.6802.672.4534 1.009 1.0946 1.009 1.9233 0 .2659-.016.4691-.047.6099l12.103-2.932c0-2.1579-.602-4.0265-1.806-5.6059-1.204-1.59495-2.995-2.82246-5.372-3.6825-2.361-.87568-5.246-1.31352-8.655-1.31352-3.284 0-6.067.41438-8.35 1.24315-2.2831.82876-4.0031 1.98591-5.1603 3.47147zm6.1453 23.9247c-.782-.6568-1.173-1.5872-1.173-2.7912 0-.7662.149-1.4386.446-2.0172s.79-1.0946 1.478-1.5481l6.192 6.1923c-1.016.7506-2.174 1.1259-3.471 1.1259-1.517 0-2.674-.3206-3.472-.9617z" fill-rule="evenodd"/><path d="m175 73.7927c0 2.6031-.959 4.571-2.877 5.9037-1.918 1.3202-4.795 1.9803-8.631 1.9803-4.136 0-7.062-.6165-8.781-1.8495-1.707-1.2331-2.51-2.8585-2.41-4.8762l8.426-1.3825c-.013.0872-.019.1993-.019.3363 0 .2989.081.5293.243.6913.174.1619.492.2864.953.3736.46.0747 1.145.1121 2.055.1121.921 0 1.569-.081 1.943-.2429.386-.1619.579-.4795.579-.9528 0-.3985-.181-.7099-.542-.9341s-.94-.3986-1.738-.5231c-.797-.1246-1.967-.2491-3.512-.3737-2.179-.1245-3.886-.3985-5.119-.822-1.22-.4235-2.111-1.0836-2.671-1.9804-.548-.9092-.822-2.1547-.822-3.7365 0-1.7686.498-3.2507 1.494-4.4464.997-1.1957 2.323-2.08 3.979-2.6529 1.657-.5854 3.475-.8781 5.456-.8781 7.186 0 11.016 1.9928 11.49 5.9784l-8.744 2.4101v-.1495c-.025-.548-.293-.9404-.803-1.177-.498-.2491-1.221-.3737-2.167-.3737-1.732 0-2.597.4048-2.597 1.2144 0 .411.143.7162.429.9155.299.1992.735.3487 1.308.4483.573.0997 1.551.218 2.933.355l1.196.1121c2.242.1993 4.011.548 5.306 1.0462s2.223 1.1895 2.784 2.0738c.573.8718.859 2.0052.859 3.4002z"/><path d="m140.004 81.0976v-10.6864c0-1.5943-.262-2.7526-.785-3.475-.511-.7348-1.271-1.1023-2.279-1.1023-1.096 0-1.975.4048-2.635 1.2144-.66.7971-.99 1.9492-.99 3.4563v10.593h-9.584v-22.9796h9.397l-.784 7.1181.934.1868c.373-2.0177.897-3.5933 1.569-4.7267.673-1.1458 1.538-1.9554 2.597-2.4287 1.059-.4857 2.398-.7286 4.017-.7286 2.64 0 4.658.9839 6.053 2.9518 1.395 1.9555 2.092 5.0817 2.092 9.3787v11.2282z"/><path d="m108.276 85.899c-2.69 0-5.006-.2865-6.949-.8594-1.931-.5729-3.4132-1.4199-4.4469-2.5408-1.0213-1.121-1.5382-2.4848-1.5507-4.0915 0-.4608.0498-.9902.1495-1.588l6.6511-1.2704v-.8594l-3.2322-.2803v-2.7463l3.1382-.2055v-1.0649c-2.0671-.2118-3.6177-.8407-4.6515-1.887-1.0213-1.0462-1.532-2.3789-1.532-3.998 0-2.3665.8719-4.1164 2.6156-5.2498 1.7439-1.1459 4.1349-1.7188 7.1739-1.7188 1.557 0 2.803.1993 3.737.5978.934.3986 1.625 1.0961 2.073 2.0925.449.9964.673 2.3976.673 4.2035l-.019.766.953.0374c.187-1.9056.473-3.394.86-4.4651.398-1.0712.946-1.8371 1.644-2.298.697-.4608 1.613-.6912 2.746-.6912.66 0 1.495.0809 2.503.2428l-.018 9.0984h-.355c-1.071 0-2.105.1682-3.102.5045-.996.3238-2.042.8033-3.138 1.4385-1.059.6601-2.074 1.1459-3.045 1.4573-.959.3113-2.186.5355-3.681.6725v1.1957l10.948-.4671c.797.7847 1.426 1.7438 1.887 2.8772.461 1.1209.691 2.2792.691 3.4749 0 1.7437-.554 3.1823-1.662 4.3157-1.097 1.1458-2.597 1.9803-4.503 2.5034-1.906.5356-4.091.8034-6.558.8034zm-4.203-21.3542c0 .8221.249 1.4012.747 1.7375.511.3239 1.196.4858 2.055.4858.797 0 1.377-.1246 1.738-.3737.373-.2491.56-.7411.56-1.4759 0-1.4323-.915-2.1485-2.746-2.1485-1.569 0-2.354.5916-2.354 1.7748zm.766 12.0876c.012.7972.355 1.4199 1.027 1.8683.673.4359 1.638.6539 2.896.6539 1.059 0 1.781-.137 2.167-.411.399-.2865.598-.6788.598-1.177 0-.4484-.155-.8283-.467-1.1397-.299-.3238-.922-.5916-1.868-.8033-.934-.2242-2.311-.3799-4.129-.4671-.187.6103-.262 1.1023-.224 1.4759z"/><path d="m87.8529 59.2764c-1.4821 0-2.6342-.1246-3.4562-.3737-.8221-.2615-1.4137-.685-1.7749-1.2704-.3612-.5978-.5418-1.4261-.5418-2.4848s.1806-1.8807.5418-2.4661c.3612-.5978.9528-1.0275 1.7749-1.2891.8345-.2615 1.9865-.3923 3.4562-.3923 1.4573 0 2.5969.1308 3.4189.3923.8221.2616 1.4137.6913 1.7749 1.2891.3612.5854.5418 1.4074.5418 2.4661s-.1806 1.887-.5418 2.4848c-.3612.5854-.9528 1.0089-1.7749 1.2704-.8095.2491-1.9492.3737-3.4189.3737zm-4.8387 1.9616c.4733.2491 1.1209.4546 1.9429.6166.8221.1494 1.7873.2241 2.8958.2241 2.1174 0 3.7054-.2802 4.7641-.8407v19.8783h-9.6028z"/><path d="m80.1642 73.7927c0 2.6031-.959 4.571-2.8771 5.9037-1.9181 1.3202-4.7952 1.9803-8.6314 1.9803-4.135 0-7.062-.6165-8.7807-1.8495-1.7064-1.2331-2.5097-2.8585-2.4101-4.8762l8.4258-1.3825c-.0124.0872-.0187.1993-.0187.3363 0 .2989.081.5293.2429.6913.1744.1619.492.2864.9528.3736.4609.0747 1.1459.1121 2.0551.1121.9217 0 1.5693-.081 1.943-.2429.3861-.1619.5792-.4795.5792-.9528 0-.3985-.1806-.7099-.5418-.9341s-.9404-.3986-1.7375-.5231c-.7971-.1246-1.9679-.2491-3.5123-.3737-2.1797-.1245-3.886-.3985-5.1191-.822-1.2205-.4235-2.1111-1.0836-2.6716-1.9804-.548-.9092-.822-2.1547-.822-3.7365 0-1.7686.4982-3.2507 1.4946-4.4464s2.3229-2.08 3.9794-2.6529c1.6565-.5854 3.4749-.8781 5.4553-.8781 7.1866 0 11.0165 1.9928 11.4898 5.9784l-8.7435 2.4101v-.1495c-.0249-.548-.2927-.9404-.8033-1.177-.4982-.2491-1.2206-.3737-2.1672-.3737-1.7312 0-2.5969.4048-2.5969 1.2144 0 .411.1433.7162.4297.9155.299.1992.7349.3487 1.3078.4483.5729.0997 1.5507.218 2.9332.355l1.1957.1121c2.2419.1993 4.0105.548 5.3058 1.0462s2.2232 1.1895 2.7837 2.0738c.5729.8718.8594 2.0052.8594 3.4002z"/><path d="m30.332 69.421c0-2.5408.5667-4.708 1.7001-6.5015 1.1334-1.7936 2.6031-3.1387 4.4091-4.0355 1.8184-.8967 3.724-1.3451 5.7168-1.3451 3.5746 0 6.4206.7597 8.538 2.2793 2.1298 1.507 3.3068 3.861 3.531 7.062l-14.1427 4.9508c.2242.8345.5978 1.4199 1.1209 1.7562.5356.3238 1.2269.4857 2.0738.4857 1.0836 0 1.8869-.2055 2.41-.6165.5356-.4235.8034-1.0026.8034-1.7375 0-.0996-.0311-.2242-.0934-.3736l9.6215.8781c.0374.3363.056.6601.056.9715 0 1.644-.467 3.1075-1.4012 4.3904-.9216 1.2704-2.3415 2.273-4.2596 3.0078-1.918.7224-4.3032 1.0836-7.1554 1.0836-4.3592 0-7.6038-.9901-9.7336-2.9705-2.1298-1.9928-3.1947-5.0879-3.1947-9.2852zm9.472.3176 4.9883-1.7188c.0373-1.0836-.1682-1.9181-.6165-2.5035-.436-.5978-1.0089-.8967-1.7188-.8967-.847 0-1.5009.3549-1.9617 1.0649-.4608.7099-.6913 1.9554-.6913 3.7365z"/><path d="m0 53.0737h10.7611c4.2846 0 7.7097.5045 10.2754 1.5133 2.5782.9964 4.4465 2.5346 5.6048 4.6146 1.1583 2.0675 1.7375 4.7703 1.7375 8.1082 0 3.064-.7162 5.6297-2.1485 7.6972-1.4199 2.0551-3.3255 3.5871-5.7169 4.5959-2.3789.9964-5.0131 1.4946-7.9027 1.4946h-12.6107zm12.7789 19.7475c1.644 0 2.9393-.3986 3.8859-1.1957.9591-.7971 1.4386-2.2357 1.4386-4.3157 0-1.4821-.2367-2.6591-.71-3.531-.4732-.8718-1.1583-1.4946-2.055-1.8682-.8968-.3737-2.0364-.5605-3.4189-.5605h-2.20458v11.4711z"/></g></svg>